<svg xmlns="http://www.w3.org/2000/svg" width="168" height="168" fill="none"><path fill="#264DE4" d="m84.134 128-25.46-7.068L53 57.294h62.345l-5.68 63.628L84.135 128Z"/><path fill="#2965F1" d="m104.803 116.87 4.853-54.373H84.172v60.093l20.631-5.72Z"/><path fill="#EBEBEB" d="m66.007 86.1.7 7.805h17.466V86.1H66.007ZM64.601 70.302l.71 7.805h18.861v-7.805H64.601ZM84.172 106.37l-.034.009-8.692-2.347-.556-6.225h-7.834l1.093 12.255 15.987 4.438.036-.01v-8.12Z"/><path fill="#000" d="M67.672 40h9.454v3.953h-5.5v3.953h5.5v3.953h-9.454V40ZM79.016 40h9.453v3.438h-5.5v.687h5.5v7.906h-9.453v-3.61h5.5v-.687h-5.5V40ZM90.36 40h9.453v3.438h-5.5v.687h5.5v7.906H90.36v-3.61h5.5v-.687h-5.5V40Z"/><path fill="#fff" d="m102.288 86.1 1.409-15.798H84.145v7.805h10.998l-.71 7.993H84.145v7.805h9.611l-.906 10.122-8.705 2.35v8.12l16.001-4.435.117-1.319 1.834-20.547.191-2.096Z"/></svg>