<svg xmlns="http://www.w3.org/2000/svg" width="168" height="168" fill="none"><path fill="#E44D26" d="m114.916 57.294-5.679 63.628L83.706 128l-25.46-7.068-5.675-63.638h62.345Z"/><path fill="#F16529" d="m83.744 122.59 20.63-5.72 4.854-54.373H83.744v60.093Z"/><path fill="#EBEBEB" d="M72.703 78.107h11.04v-7.805h-19.57l.187 2.094 1.918 21.509h17.466V86.1H73.416l-.713-7.993ZM74.462 97.807H66.627l1.093 12.255 15.988 4.438.036-.01v-8.12l-.034.009-8.693-2.347-.555-6.225Z"/><path fill="#000" d="M58.372 40h3.966v3.919h3.629V40h3.966v11.867h-3.966v-3.974h-3.628v3.974h-3.967V40ZM75.15 43.935h-3.493V40H82.61v3.935h-3.493v7.932h-3.967v-7.932ZM84.347 40h4.136l2.544 4.17L93.57 40h4.137v11.867h-3.95v-5.882l-2.729 4.22h-.068l-2.73-4.22v5.882h-3.882V40ZM99.68 40h3.968v7.944h5.578v3.923H99.68V40Z"/><path fill="#fff" d="M83.717 93.905h9.61l-.905 10.122-8.705 2.35v8.12l16-4.435.118-1.319 1.834-20.547.19-2.096H83.716v7.805ZM83.717 78.088v.02h18.852l.157-1.755.356-3.957.186-2.094H83.717v7.786Z"/></svg>