<svg xmlns="http://www.w3.org/2000/svg" width="168" height="168" fill="none"><path fill="#fff" d="m53.21 57.196.01.787c.005.432 1.258 14.753 2.784 31.823l2.775 31.038 12.472 3.491c6.86 1.921 12.613 3.502 12.786 3.514.173.012 6.003-1.553 12.956-3.478 11.146-3.086 12.651-3.551 12.731-3.933.111-.532 5.57-62.111 5.564-62.77l-.004-.472H53.21Z"/><path fill="#EAEBEC" d="m71.35 124.544-12.583-3.517-.164-.93C58.456 119.269 53 58.326 53 57.521c0-.292 3.186-.325 31.247-.325 29.62 0 31.247.02 31.244.367-.009 1.503-5.657 63.253-5.796 63.376-.175.155-24.53 6.94-25.343 7.06-.23.035-6.082-1.52-13.002-3.455Zm20.831-12.427c4.23-1.167 7.75-2.181 7.825-2.254.075-.074.569-5.089 1.1-11.144.53-6.055 1.017-11.41 1.083-11.901l.119-.891H84.037v7.759h9.865l-.099.472c-.053.26-.263 2.49-.466 4.956-.214 2.613-.468 4.585-.61 4.725-.132.133-2.142.748-4.465 1.368l-4.225 1.126v3.952c0 2.698.072 3.953.227 3.953.125 0 3.688-.955 7.917-2.121Zm10.007-31.066c-.139-1.028-1.374-14.81-1.374-15.33 0-.316-.726-.346-8.283-.346h-8.284v8.114l3.722.143c2.048.08 4.202.2 4.788.267l1.066.124.259 3.173c.142 1.745.311 3.527.376 3.96l.118.786h7.732l-.12-.891Z"/><path fill="#F0BE25" d="m71.25 124.335-12.47-3.491-2.776-31.038c-1.526-17.07-2.779-31.39-2.784-31.823l-.01-.787h62.074l.004.472c.006.659-5.453 62.238-5.564 62.77-.08.382-1.585.847-12.731 3.933-6.953 1.925-12.783 3.49-12.956 3.478-.173-.012-5.927-1.593-12.786-3.514Zm20.94-12.07c4.312-1.198 7.9-2.278 7.975-2.399.075-.121.59-5.392 1.145-11.713.554-6.32 1.054-11.657 1.109-11.86.095-.346-.638-.366-13.293-.366H75.733l.57-6.03c.314-3.316.578-6.037.587-6.048.01-.01 1.975-.073 4.369-.14 3.924-.108 12.017.206 12.287.476.102.101.767 6.63.767 7.521 0 .44.06.446 4.064.446h4.063l-.095-.891c-.053-.49-.397-4.289-.765-8.441l-.67-7.55-15.671-.054c-12.468-.042-15.672 0-15.674.21 0 .145-.092 1.066-.203 2.046-.268 2.373-2.311 25.295-2.311 25.928v.496h26.67l-.12.786c-.064.433-.272 2.627-.46 4.876-.188 2.249-.402 4.147-.476 4.218-.195.188-8.04 2.284-8.53 2.279-.227-.002-2.253-.508-4.502-1.123l-4.09-1.12-.149-1.76a292.44 292.44 0 0 0-.279-3.07l-.129-1.311H67.051l.008.786c.017 1.47.97 11.377 1.109 11.515.16.161 15.4 4.445 15.87 4.461.172.006 3.841-.969 8.153-2.168Z"/><path fill="#E4A126" d="m71.25 124.335-12.47-3.491-2.776-31.038c-1.526-17.07-2.779-31.39-2.784-31.823l-.01-.787h62.074l.004.472c.006.659-5.453 62.238-5.564 62.77-.08.382-1.585.847-12.731 3.933-6.953 1.925-12.783 3.49-12.956 3.478-.173-.012-5.927-1.593-12.786-3.514Zm23.26-4.671c5.485-1.514 10.077-2.859 10.203-2.988.196-.202 4.934-52.133 4.915-53.87l-.006-.577H84.247v2.936h-7.34c-5.731 0-7.34.058-7.342.262 0 .145-.092 1.065-.203 2.045-.268 2.373-2.311 25.295-2.311 25.928v.496h17.196v6.081c0 4.728-.058 6.081-.262 6.078-.144-.002-2.103-.508-4.352-1.123l-4.09-1.12-.149-1.76a292.44 292.44 0 0 0-.279-3.07l-.129-1.311H67.051l.008.786c.026 2.249.999 11.431 1.227 11.572.138.086 3.787 1.134 8.106 2.33l7.855 2.173v3.942c0 2.168.065 3.942.144 3.942.078 0 4.632-1.238 10.118-2.752ZM76.28 79.954c.302-3.285.59-6.01.64-6.056.05-.045 1.719-.127 3.708-.182l3.618-.1v12.311h-8.514l.548-5.973Z"/><path fill="#0E0E0F" d="M72.922 49.752v-1.993h5.662V40H82.57v11.744h-9.646v-1.992Zm11.535.419v-1.573h2.621c1.442 0 2.621-.053 2.621-.118s-1.18-1.397-2.621-2.96l-2.621-2.84V40H95.362v3.133l-2.56.059-2.56.059 2.665 2.869 2.664 2.87v2.754H84.457V50.17Z"/></svg>