<svg xmlns="http://www.w3.org/2000/svg" width="168" height="168" fill="none"><path fill="#CD6799" d="M126.041 90.588c-4.093.021-7.651 1.007-10.631 2.465-1.093-2.165-2.186-4.094-2.379-5.509-.214-1.65-.471-2.657-.214-4.63.257-1.971 1.415-4.779 1.393-4.993-.021-.215-.257-1.222-2.615-1.243-2.357-.022-4.393.45-4.629 1.071-.236.622-.686 2.037-.986 3.494-.407 2.143-4.715 9.795-7.18 13.803-.793-1.565-1.48-2.937-1.63-4.03-.213-1.65-.47-2.657-.213-4.63.257-1.971 1.414-4.779 1.393-4.993-.022-.214-.257-1.222-2.615-1.243-2.358-.022-4.394.45-4.63 1.072-.236.621-.493 2.079-.986 3.493-.493 1.415-6.215 14.189-7.716 17.49a99.113 99.113 0 0 1-1.907 3.965s-.021.064-.086.171c-.407.793-.643 1.222-.643 1.222v.021c-.321.579-.664 1.115-.836 1.115-.128 0-.364-1.543.043-3.644.858-4.437 2.894-11.338 2.872-11.574 0-.128.386-1.329-1.329-1.95-1.671-.622-2.272.407-2.422.407-.15 0-.257.364-.257.364s1.865-7.758-3.558-7.758c-3.386 0-8.058 3.708-10.373 7.051-1.458.793-4.566 2.486-7.888 4.308-1.264.707-2.572 1.415-3.793 2.08-.086-.087-.172-.194-.258-.28-6.558-7.008-18.69-11.96-18.175-21.368.193-3.43 1.372-12.431 23.298-23.362 18.047-8.895 32.407-6.43 34.893-.965 3.558 7.802-7.694 22.29-26.341 24.391-7.116.793-10.845-1.95-11.788-2.98-.986-1.07-1.136-1.135-1.5-.92-.6.32-.215 1.285 0 1.843.556 1.457 2.85 4.029 6.73 5.293 3.428 1.115 11.766 1.736 21.861-2.164 11.295-4.373 20.126-16.525 17.532-26.706-2.593-10.33-19.74-13.739-35.964-7.973-9.645 3.43-20.105 8.83-27.628 15.86-8.937 8.36-10.352 15.625-9.773 18.669 2.079 10.802 16.975 17.832 22.933 23.04-.3.172-.578.322-.814.45-2.98 1.479-14.339 7.416-17.168 13.696-3.215 7.116.514 12.217 2.979 12.903 7.652 2.122 15.518-1.693 19.74-7.995 4.222-6.301 3.708-14.489 1.757-18.239a.448.448 0 0 0-.085-.129c.771-.45 1.564-.922 2.336-1.372 1.522-.9 3.022-1.736 4.308-2.421-.729 1.993-1.265 4.372-1.522 7.801-.321 4.03 1.33 9.259 3.494 11.317.964.9 2.1.921 2.829.921 2.53 0 3.665-2.1 4.93-4.586 1.543-3.044 2.936-6.58 2.936-6.58s-1.736 9.559 2.98 9.559c1.714 0 3.45-2.229 4.221-3.365v.021s.043-.064.129-.214c.171-.279.279-.45.279-.45v-.043c.686-1.2 2.229-3.922 4.522-8.445 2.958-5.83 5.808-13.117 5.808-13.117s.258 1.78 1.136 4.737c.515 1.736 1.586 3.644 2.444 5.487-.686.964-1.115 1.5-1.115 1.5l.022.022c-.558.728-1.158 1.521-1.822 2.293-2.336 2.786-5.123 5.98-5.508 6.901-.45 1.094-.343 1.887.514 2.53.621.471 1.736.535 2.872.471 2.1-.15 3.58-.664 4.308-.986 1.136-.407 2.465-1.029 3.708-1.95 2.293-1.693 3.686-4.115 3.558-7.309-.064-1.757-.643-3.515-1.35-5.165.214-.3.407-.6.621-.9 3.622-5.294 6.43-11.103 6.43-11.103s.257 1.78 1.136 4.737c.429 1.5 1.307 3.13 2.079 4.715-3.408 2.765-5.508 5.98-6.258 8.08-1.351 3.901-.301 5.659 1.693 6.066.9.193 2.186-.236 3.129-.643 1.2-.386 2.615-1.05 3.965-2.036 2.293-1.693 4.501-4.051 4.372-7.244-.064-1.458-.45-2.894-.985-4.287 2.893-1.2 6.622-1.865 11.381-1.308 10.202 1.2 12.216 7.566 11.831 10.245-.386 2.68-2.53 4.137-3.237 4.587-.707.45-.943.6-.879.922.086.471.429.45 1.029.364.836-.15 5.359-2.165 5.551-7.094.322-6.302-5.679-13.181-16.289-13.117Zm-78.702 26.534c-3.386 3.686-8.102 5.08-10.138 3.901-2.186-1.265-1.329-6.709 2.83-10.61 2.528-2.379 5.786-4.586 7.95-5.937.494-.3 1.223-.728 2.101-1.264.15-.086.236-.129.236-.129l.515-.321c1.521 5.572.064 10.481-3.494 14.36Zm24.648-16.761c-1.179 2.872-3.644 10.224-5.144 9.817-1.286-.343-2.079-5.916-.257-11.424.921-2.765 2.872-6.066 4.008-7.352 1.843-2.057 3.88-2.743 4.372-1.907.622 1.093-2.25 9.066-2.979 10.866Zm20.34 9.731c-.493.257-.965.429-1.179.3-.15-.086.215-.429.215-.429s2.55-2.743 3.557-3.986c.58-.729 1.265-1.586 1.994-2.551v.279c0 3.279-3.172 5.487-4.587 6.387Zm15.689-3.579c-.364-.258-.3-1.115.922-3.794.471-1.05 1.586-2.808 3.493-4.501.215.686.365 1.35.343 1.972-.021 4.136-2.979 5.68-4.758 6.323Z"/></svg>