<svg xmlns="http://www.w3.org/2000/svg" width="168" height="168" fill="none"><path fill="#FDB300" d="M61.35 50.37 83.763 48l22.412 2.37 17.351 23.291-39.763 46.303L44 73.661 61.35 50.37Z"/><path fill="#EA6C00" d="m60.106 73.661 23.656 46.303L44 73.661h16.106ZM107.419 73.661l-23.657 46.303 39.763-46.303h-16.106Z"/><path fill="#FDAD00" d="M60.106 73.661h47.313l-23.657 46.303-23.656-46.303Z"/><path fill="#FDD231" d="m83.762 48-22.411 2.37-1.245 23.291L83.762 48ZM83.762 48l22.412 2.37 1.245 23.291L83.762 48Z"/><path fill="#FDAD00" d="M123.525 73.661 106.174 50.37l1.245 23.292h16.106ZM44 73.661 61.35 50.37l-1.244 23.292H44Z"/><path fill="#FEEEB7" d="M83.762 48 60.106 73.661h47.313L83.762 48Z"/></svg>