<svg xmlns="http://www.w3.org/2000/svg" width="168" height="168" fill="none"><path fill="url(#a)" fill-rule="evenodd" d="M114.482 44H53.518A9.53 9.53 0 0 0 44 53.518v60.964A9.533 9.533 0 0 0 53.518 124h60.964a9.53 9.53 0 0 0 9.518-9.518V53.518A9.529 9.529 0 0 0 114.482 44ZM78.46 101.617a3.166 3.166 0 0 1-3.164 3.164H61.932a3.164 3.164 0 0 1-3.163-3.164V61.932a3.164 3.164 0 0 1 3.163-3.163h13.364a3.164 3.164 0 0 1 3.164 3.163v39.685Zm30.771-18.22a3.16 3.16 0 0 1-3.163 3.228H92.704a3.163 3.163 0 0 1-3.164-3.163v-21.53a3.163 3.163 0 0 1 3.164-3.163h13.364a3.163 3.163 0 0 1 3.163 3.163v21.464Z" clip-rule="evenodd"/><defs><linearGradient id="a" x1="84" x2="84" y1="124" y2="44" gradientUnits="userSpaceOnUse"><stop stop-color="#0052CC"/><stop offset="1" stop-color="#2684FF"/></linearGradient></defs></svg>