<svg xmlns="http://www.w3.org/2000/svg" width="168" height="168" fill="none"><path fill="#001E36" d="M57.53 44h52.991c8.035 0 14.53 6.496 14.53 14.53v50.94c0 8.034-6.495 14.53-14.53 14.53H57.53C49.496 124 43 117.504 43 109.47V58.53C43 50.496 49.496 44 57.53 44Z"/><path fill="#31A8FF" d="M61.462 100.103v-35.18c0-.24.102-.376.341-.376.582 0 1.129 0 1.915-.034.82-.034 1.675-.034 2.598-.069.923-.034 1.915-.034 2.975-.068s2.085-.034 3.11-.034c2.804 0 5.129.342 7.044 1.06a12.21 12.21 0 0 1 4.58 2.803 10.886 10.886 0 0 1 2.496 3.898c.513 1.436.787 2.906.787 4.444 0 2.94-.684 5.368-2.052 7.282-1.367 1.915-3.282 3.35-5.504 4.171-2.325.855-4.889 1.162-7.692 1.162-.82 0-1.368 0-1.71-.034-.341-.034-.82-.034-1.47-.034v10.974a.425.425 0 0 1-.376.479H61.872c-.274 0-.41-.137-.41-.444Zm7.453-28.958v11.487c.478.035.923.069 1.333.069h1.812c1.333 0 2.666-.205 3.931-.615 1.094-.308 2.052-.958 2.804-1.813.718-.854 1.06-2.017 1.06-3.52a5.627 5.627 0 0 0-.787-3.044 4.958 4.958 0 0 0-2.393-1.948c-1.265-.513-2.632-.718-4.034-.684-.889 0-1.675 0-2.325.034-.684-.034-1.162 0-1.401.034ZM108.641 80.547a12.109 12.109 0 0 0-3.282-1.162c-1.265-.274-2.53-.445-3.829-.445-.684-.034-1.402.069-2.051.24-.445.102-.82.341-1.06.683a1.811 1.811 0 0 0-.274.923c0 .308.137.616.342.89.308.375.718.683 1.163.922.786.41 1.606.787 2.427 1.129a24.768 24.768 0 0 1 5.265 2.495 7.961 7.961 0 0 1 2.701 2.838c.547 1.094.82 2.29.786 3.521a7.955 7.955 0 0 1-1.333 4.547 8.575 8.575 0 0 1-3.829 3.043c-1.676.718-3.727 1.094-6.188 1.094-1.573 0-3.111-.137-4.65-.445a13.798 13.798 0 0 1-3.487-1.093c-.24-.137-.41-.377-.376-.65v-5.949c0-.102.034-.24.137-.308.102-.068.205-.034.307.035a14.637 14.637 0 0 0 4.24 1.675c1.299.342 2.666.513 4.034.513 1.299 0 2.222-.171 2.837-.479.547-.24.923-.82.923-1.436 0-.478-.273-.923-.82-1.367-.547-.445-1.675-.958-3.35-1.607a20.918 20.918 0 0 1-4.855-2.462 8.851 8.851 0 0 1-2.599-2.906 7.336 7.336 0 0 1-.786-3.487c0-1.47.41-2.872 1.162-4.137a8.427 8.427 0 0 1 3.59-3.145c1.607-.82 3.624-1.197 6.052-1.197 1.401 0 2.837.103 4.239.308 1.026.137 2.017.41 2.94.787.137.034.274.17.342.307.034.137.068.274.068.41v5.573a.42.42 0 0 1-.171.342c-.307.068-.478.068-.615 0Z"/></svg>