<svg xmlns="http://www.w3.org/2000/svg" width="168" height="168" fill="none"><path fill="#2684FF" d="M121.381 81.79 86.906 47.315 83.591 44 57.735 69.856 45.912 81.68c-1.216 1.215-1.216 3.204 0 4.53l23.646 23.646L83.591 124l25.856-25.856.442-.442 11.492-11.492a3.134 3.134 0 0 0 0-4.42Zm-37.79 14.033L71.768 84l11.823-11.823L95.414 84 83.591 95.823Z"/><path fill="url(#a)" d="M83.591 72.177c-7.734-7.735-7.734-20.331-.11-28.066L57.625 69.967 71.657 84 83.59 72.177Z"/><path fill="url(#b)" d="M95.415 84 83.59 95.823c7.735 7.735 7.735 20.332 0 28.177l25.967-25.967L95.415 84Z"/><defs><linearGradient id="a" x1="81.482" x2="64.97" y1="60.199" y2="76.71" gradientUnits="userSpaceOnUse"><stop offset=".176" stop-color="#0052CC"/><stop offset="1" stop-color="#2684FF"/></linearGradient><linearGradient id="b" x1="85.853" x2="102.332" y1="107.631" y2="91.152" gradientUnits="userSpaceOnUse"><stop offset=".176" stop-color="#0052CC"/><stop offset="1" stop-color="#2684FF"/></linearGradient></defs></svg>