<svg xmlns="http://www.w3.org/2000/svg" width="168" height="168" fill="none"><path fill="#E01E5A" d="M60.808 94.554c0 4.625-3.779 8.404-8.404 8.404-4.626 0-8.404-3.779-8.404-8.404 0-4.626 3.779-8.404 8.404-8.404h8.404v8.404ZM65.042 94.554c0-4.626 3.779-8.404 8.404-8.404 4.626 0 8.404 3.778 8.404 8.404v21.042c0 4.625-3.778 8.404-8.404 8.404-4.625 0-8.404-3.779-8.404-8.404V94.554Z"/><path fill="#36C5F0" d="M73.446 60.808c-4.625 0-8.404-3.779-8.404-8.404 0-4.626 3.779-8.404 8.404-8.404 4.626 0 8.404 3.779 8.404 8.404v8.404h-8.404ZM73.446 65.042c4.626 0 8.404 3.779 8.404 8.404 0 4.626-3.778 8.404-8.404 8.404H52.404c-4.626 0-8.404-3.778-8.404-8.404 0-4.625 3.779-8.404 8.404-8.404h21.042Z"/><path fill="#2EB67D" d="M107.192 73.446c0-4.625 3.779-8.404 8.404-8.404 4.626 0 8.404 3.779 8.404 8.404 0 4.626-3.778 8.404-8.404 8.404h-8.404v-8.404ZM102.958 73.446c0 4.626-3.779 8.404-8.404 8.404-4.626 0-8.404-3.778-8.404-8.404V52.404c0-4.626 3.778-8.404 8.404-8.404 4.625 0 8.404 3.779 8.404 8.404v21.042Z"/><path fill="#ECB22E" d="M94.554 107.192c4.625 0 8.404 3.779 8.404 8.404S99.179 124 94.554 124c-4.626 0-8.404-3.779-8.404-8.404v-8.404h8.404ZM94.554 102.958c-4.626 0-8.404-3.779-8.404-8.404 0-4.626 3.778-8.404 8.404-8.404h21.042c4.626 0 8.404 3.778 8.404 8.404 0 4.625-3.778 8.404-8.404 8.404H94.554Z"/></svg>