<svg width="168" height="168" viewBox="0 0 168 168" fill="none" xmlns="http://www.w3.org/2000/svg">
<path d="M128 40H40V128H128V40Z" fill="#242F3E"/>
<path fill-rule="evenodd" clip-rule="evenodd" d="M111.936 92.5817C112.73 93.6135 111.056 97.8595 110.306 99.7603C110.077 100.337 110.565 100.563 111.076 100.13C114.404 97.3051 115.267 91.3849 114.583 90.5313C113.907 89.6821 108.09 88.9539 104.544 91.4817C103.996 91.8711 104.091 92.4079 104.696 92.3375C106.693 92.0911 111.144 91.5521 111.936 92.5817ZM110.084 97.0015C111.223 96.1699 110.246 94.9313 109.085 95.4175C101.356 98.6383 92.9653 100.198 85.3247 100.198C74.0101 100.198 63.0453 97.1423 54.1815 92.0691C53.4071 91.6247 52.8329 92.4101 53.4797 92.9799C61.6923 100.275 72.5515 104.66 84.6032 104.66C93.2052 104.66 103.195 102.002 110.084 97.0015ZM105.367 85.5285C104.271 85.5285 103.2 85.4119 102.157 85.1743C101.11 84.9345 100.309 84.6639 99.7523 84.3537C99.4113 84.1689 99.1979 83.9753 99.1121 83.7861C99.0285 83.5925 98.9845 83.4033 98.9845 83.2141V82.1823C98.9845 81.7555 99.1452 81.5377 99.4598 81.5377C99.5808 81.5377 99.7083 81.5663 99.8403 81.6103C99.9745 81.6609 100.151 81.7313 100.371 81.8259C101.075 82.1361 101.838 82.3715 102.667 82.5387C103.495 82.7037 104.32 82.7873 105.145 82.7873C106.458 82.7873 107.472 82.5629 108.189 82.1097C108.909 81.6609 109.265 81.0207 109.265 80.1891C109.265 79.6171 109.078 79.1441 108.7 78.7613C108.324 78.3785 107.624 78.0287 106.605 77.6943L103.58 76.7681C102.047 76.2929 100.936 75.6043 100.243 74.7045C99.5499 73.7981 99.2045 72.8147 99.2045 71.7411C99.2045 70.8897 99.3916 70.1373 99.7722 69.4817C100.146 68.8283 100.641 68.2717 101.259 67.8075C101.886 67.3455 102.61 66.9979 103.435 66.7559C104.258 66.5205 105.134 66.3995 106.058 66.3995C106.52 66.3995 106.988 66.4303 107.466 66.4897C107.939 66.5469 108.387 66.6261 108.812 66.7207C109.237 66.8197 109.633 66.9253 109.996 67.0419C110.361 67.1629 110.651 67.2817 110.873 67.3983C111.162 67.5633 111.366 67.7305 111.492 67.8977C111.613 68.0627 111.674 68.2871 111.674 68.5753V69.5345C111.674 69.9635 111.516 70.1747 111.197 70.1747C111.027 70.1747 110.763 70.0955 110.396 69.9283C109.208 69.4025 107.866 69.1451 106.39 69.1451C105.197 69.1451 104.271 69.3343 103.616 69.7127C102.958 70.0955 102.63 70.7005 102.63 71.5321C102.63 72.0997 102.837 72.5815 103.253 72.9731C103.666 73.3647 104.43 73.7387 105.549 74.0973L108.502 75.0257C110.009 75.4965 111.085 76.1521 111.727 76.9793C112.374 77.8131 112.697 78.7613 112.697 79.8283C112.697 80.7105 112.515 81.5003 112.147 82.1999C111.782 82.9017 111.278 83.4979 110.631 83.9973C109.989 84.4967 109.219 84.8751 108.319 85.1369C107.417 85.4009 106.434 85.5285 105.367 85.5285ZM78.6037 84.9917C78.2385 84.9917 77.9723 84.9323 77.8007 84.8003C77.6291 84.6661 77.4839 84.4021 77.3629 83.9973L72.4745 68.2519C72.3579 67.8471 72.2941 67.5765 72.2941 67.4357C72.2941 67.1035 72.4657 66.9363 72.8067 66.9363H74.8461C75.2355 66.9363 75.5083 67.0023 75.6689 67.1343C75.8251 67.2619 75.9638 67.5259 76.0848 67.9351L79.5849 81.3991L82.8343 67.9351C82.9311 67.5259 83.0631 67.2619 83.2325 67.1343C83.4019 67.0023 83.6814 66.9363 84.0686 66.9363H85.7515C86.1365 66.9363 86.416 67.0023 86.5876 67.1343C86.757 67.2619 86.8911 67.5259 86.9879 67.9351L90.2725 81.5773L93.8805 67.9351C94.0015 67.5259 94.1401 67.2619 94.2985 67.1343C94.4591 67.0023 94.7297 66.9363 95.1191 66.9363H97.0507C97.3939 66.9363 97.5633 67.1035 97.5633 67.4357C97.5633 67.5259 97.548 67.6359 97.5282 67.7525C97.4996 67.8757 97.4555 68.0407 97.3785 68.2519L92.3494 83.9973C92.2284 84.4021 92.0809 84.6661 91.9093 84.8003C91.7399 84.9323 91.4715 84.9917 91.1085 84.9917H89.3199C88.9327 84.9917 88.6534 84.9257 88.484 84.7849C88.3146 84.6419 88.1803 84.3647 88.0835 83.9643L84.8363 70.8523L81.631 83.9643C81.5342 84.3647 81.3977 84.6419 81.2283 84.7849C81.0567 84.9257 80.7795 84.9917 80.3901 84.9917H78.6037ZM61.8662 82.7873C62.5504 82.7873 63.2653 82.6619 64.0199 82.4133C64.7723 82.1625 65.4279 81.7313 65.9867 81.1109C66.3299 80.7325 66.5631 80.2991 66.6995 79.8107C66.8315 79.3267 66.8953 78.7393 66.8953 78.0485V77.1949C66.2925 77.0519 65.6545 76.9397 64.9835 76.8561C64.3147 76.7747 63.6657 76.7307 63.0321 76.7307C61.6483 76.7307 60.6121 77.0035 59.9345 77.5513C59.2547 78.0969 58.9115 78.8779 58.9115 79.9053C58.9115 80.8535 59.1689 81.5685 59.6793 82.0569C60.1897 82.5453 60.9202 82.7873 61.8662 82.7873ZM70.3273 79.6897C70.3273 80.4487 70.4043 81.0515 70.5627 81.5047C70.7233 81.9579 70.9477 82.4463 71.2381 82.9655C71.3349 83.1327 71.3833 83.2867 71.3833 83.4253C71.3833 83.6431 71.2491 83.8455 70.9829 84.0325L69.6695 84.8905C69.4759 85.0071 69.2933 85.0687 69.1239 85.0687C68.9017 85.0687 68.6971 84.9741 68.5035 84.7849C68.2087 84.4967 67.9623 84.1843 67.7577 83.8389C67.5465 83.4957 67.3353 83.0931 67.1175 82.6421C65.4873 84.5187 63.4479 85.4581 60.9927 85.4581C59.2415 85.4581 57.8555 84.9741 56.8325 83.9973C55.8139 83.0249 55.3035 81.7181 55.3035 80.0813C55.3035 78.3499 55.9349 76.9507 57.2021 75.8947C58.4627 74.8387 60.1677 74.3085 62.3039 74.3085C63.0101 74.3085 63.7449 74.3635 64.5105 74.4691C65.2739 74.5747 66.0725 74.7265 66.8953 74.9157V73.4219C66.8953 71.8775 66.5719 70.7907 65.9141 70.1593C65.2585 69.5301 64.1299 69.2177 62.5261 69.2177C61.7935 69.2177 61.0455 69.3035 60.2799 69.4817C59.5165 69.6599 58.7663 69.8909 58.0381 70.1747C57.6971 70.3177 57.4529 70.4079 57.3099 70.4431C57.1647 70.4783 57.0547 70.4959 56.9821 70.4959C56.6917 70.4959 56.5421 70.2847 56.5421 69.8535V68.8591C56.5421 68.5247 56.5949 68.2871 56.6917 68.1485C56.7885 68.0033 56.9821 67.8603 57.2747 67.7195C58.0029 67.3609 58.8785 67.0529 59.8971 66.7933C60.9201 66.5315 62.0003 66.3995 63.1443 66.3995C65.6215 66.3995 67.4387 66.9561 68.5937 68.0561C69.7465 69.1605 70.3273 70.8281 70.3273 73.0611V79.6897Z" fill="white"/>
</svg>
