<svg xmlns="http://www.w3.org/2000/svg" width="168" height="168" fill="none"><path fill="#74BB11" fill-rule="evenodd" d="M115.058 46.122c-.637-1.273-1.91-2.122-3.608-2.122h-6.26c-1.803 0-3.183.743-3.819 2.016L92.14 59.49l8.064 11.034 14.111-20.159c1.591-1.91.955-3.607.743-4.244Z" clip-rule="evenodd"/><path fill="#009CD9" fill-rule="evenodd" d="M66.357 45.91C64.872 44 63.068 44 62.432 44h-6.048c-1.592 0-2.865.743-3.608 2.016-.636 1.273-.53 2.759.425 4.244l22.6 31.406-25.995 36.18c-.955 1.379-1.061 2.865-.319 4.138.637 1.273 1.91 2.016 3.502 2.016h6.26a4.28 4.28 0 0 0 3.713-2.122l29.072-40.106L66.357 45.91Z" clip-rule="evenodd"/><path fill="#EB2084" fill-rule="evenodd" d="m118.135 118.907-15.703-21.538-6.897 9.549 12.414 16.658.318.106a4.263 4.263 0 0 0 1.592.318h5.305c1.273 0 2.334-.53 2.971-1.591.636-.955.636-2.229 0-3.502Z" clip-rule="evenodd"/></svg>