<svg width="168" height="168" viewBox="0 0 168 168" fill="none" xmlns="http://www.w3.org/2000/svg">
<mask id="mask0_4246_233" style="mask-type:luminance" maskUnits="userSpaceOnUse" x="42" y="44" width="85" height="80">
<path d="M42 44H48.8132C59.4218 44 69.596 48.2143 77.0975 55.7157C84.5989 63.2172 88.8132 73.3913 88.8132 84C88.8132 94.6087 84.5989 104.783 77.0975 112.284C69.596 119.786 59.4218 124 48.8132 124H42V106.418H48.8132C54.7587 106.418 60.4607 104.056 64.6648 99.8516C68.8689 95.6475 71.2308 89.9455 71.2308 84C71.2308 78.0545 68.8689 72.3525 64.6648 68.1484C60.4607 63.9443 54.7587 61.5824 48.8132 61.5824H42V44ZM73.869 44H102.001C106.636 44 111.176 45.3205 115.088 47.807C119 50.2936 122.122 53.8431 124.09 58.0401C126.057 62.2371 126.789 66.9079 126.198 71.5054C125.607 76.1029 123.718 80.4369 120.753 84C123.718 87.5631 125.607 91.8971 126.198 96.4946C126.789 101.092 126.057 105.763 124.09 109.96C122.122 114.157 119 117.706 115.088 120.193C111.176 122.679 106.636 124 102.001 124H73.869C80.7913 119.664 86.4698 113.606 90.3494 106.418H102C102.895 106.418 103.781 106.241 104.607 105.899C105.434 105.557 106.185 105.055 106.818 104.422C107.45 103.789 107.952 103.038 108.295 102.212C108.637 101.385 108.813 100.499 108.813 99.6044C108.813 98.7097 108.637 97.8237 108.295 96.9971C107.952 96.1705 107.45 95.4194 106.818 94.7867C106.185 94.1541 105.434 93.6522 104.607 93.3098C103.781 92.9674 102.895 92.7912 102 92.7912H95.1868C96.2881 86.9821 96.2881 81.0179 95.1868 75.2088H102C102.895 75.2088 103.781 75.0326 104.607 74.6902C105.434 74.3478 106.185 73.8459 106.818 73.2133C107.45 72.5806 107.952 71.8295 108.295 71.0029C108.637 70.1763 108.813 69.2903 108.813 68.3956C108.813 67.5009 108.637 66.6149 108.295 65.7883C107.952 64.9617 107.45 64.2106 106.818 63.578C106.185 62.9453 105.434 62.4434 104.607 62.101C103.781 61.7586 102.895 61.5824 102 61.5824H90.3494C86.4698 54.3943 80.7913 48.3361 73.869 44Z" fill="white"/>
</mask>
<g mask="url(#mask0_4246_233)">
<path d="M-70.5276 -45.6703V218.066H193.209L-70.5276 -45.6703Z" fill="url(#paint0_linear_4246_233)"/>
<path d="M-21.2966 -45.6703H242.44V218.066L-21.2966 -45.6703Z" fill="url(#paint1_linear_4246_233)"/>
<path d="M-45.9121 -45.6703L217.824 218.066" stroke="url(#paint2_linear_4246_233)" stroke-width="40"/>
</g>
<defs>
<linearGradient id="paint0_linear_4246_233" x1="48.1537" y1="100.264" x2="85.9559" y2="138.066" gradientUnits="userSpaceOnUse">
<stop stop-color="#F9A03C"/>
<stop offset="1" stop-color="#F7974E"/>
</linearGradient>
<linearGradient id="paint1_linear_4246_233" x1="81.5605" y1="35.2088" x2="136.945" y2="90.5934" gradientUnits="userSpaceOnUse">
<stop stop-color="#B84E51"/>
<stop offset="1" stop-color="#F68E48"/>
</linearGradient>
<linearGradient id="paint2_linear_4246_233" x1="43.7582" y1="42.2417" x2="118.484" y2="117.846" gradientUnits="userSpaceOnUse">
<stop stop-color="#F26D58"/>
<stop offset="1" stop-color="#F9A03C"/>
</linearGradient>
</defs>
</svg>
