<svg width="168" height="168" viewBox="0 0 168 168" fill="none" xmlns="http://www.w3.org/2000/svg">
<path d="M121.444 73.9667C123.436 66.5022 121.504 58.2077 115.648 52.3517C109.792 46.4959 101.498 44.5641 94.0329 46.556C88.5639 41.0987 80.4156 38.6245 72.4158 40.7682C64.4161 42.9114 58.5963 49.1287 56.5891 56.5892C49.1285 58.5965 42.9112 64.417 40.768 72.416C38.6247 80.4157 41.0985 88.5641 46.5563 94.033C44.5644 101.498 46.4965 109.792 52.3522 115.648C58.208 121.504 66.502 123.436 73.9673 121.444C79.436 126.901 87.5851 129.375 95.5841 127.232C103.584 125.089 109.404 118.872 111.411 111.411C118.872 109.404 125.089 103.584 127.232 95.5843C129.375 87.5848 126.902 79.4362 121.444 73.9675V73.9667ZM112.053 55.9479C116.021 59.9162 117.657 65.3328 116.962 70.4963L98.3263 59.7366C97.5408 59.283 96.5726 59.283 95.7876 59.7366L73.9673 72.3344V64.0736C73.9673 63.4943 74.2777 62.9519 74.7799 62.6621L91.3957 53.0692C97.9792 49.3919 106.457 50.3521 112.053 55.9479H112.053ZM84.0001 72.4148L94.0334 78.2075V89.793L84.0001 95.5858L73.9666 89.793V78.2075L84.0001 72.4148ZM60.9102 62.1302C61.0172 54.5904 66.0879 47.7286 73.7321 45.6801C79.1527 44.2279 84.6621 45.5191 88.7863 48.7022L70.1496 59.4614C69.364 59.9147 68.8802 60.7534 68.8802 61.66V86.8556L61.7263 82.7252C61.2246 82.4354 60.9102 81.895 60.9102 81.3154V62.1297V62.1302ZM45.6797 73.7323C47.1319 68.3119 51.005 64.1858 55.8239 62.2061V83.7254C55.8239 84.632 56.3077 85.4703 57.0932 85.9239L78.9137 98.5217L71.7596 102.652C71.2579 102.942 70.6326 102.944 70.1309 102.654L53.5151 93.0612C47.0386 89.1985 43.632 81.376 45.6797 73.7323ZM55.9477 112.053C51.9793 108.084 50.343 102.668 51.0377 97.5042L69.6737 108.264C70.4595 108.717 71.4274 108.717 72.2124 108.264L94.0329 95.6661V103.927C94.0329 104.506 93.7225 105.049 93.2201 105.338L76.6043 114.931C70.0208 118.608 61.5432 117.648 55.9469 112.053H55.9477ZM107.09 105.87C106.983 113.41 101.912 120.272 94.2679 122.32C88.8473 123.773 83.3379 122.481 79.214 119.298L97.8504 108.539C98.6362 108.086 99.1198 107.247 99.1198 106.34V81.1447L106.274 85.2753C106.776 85.5651 107.09 86.1055 107.09 86.6851V105.871V105.87ZM122.32 94.268C120.868 99.6886 116.995 103.814 112.176 105.794V84.2752C112.176 83.3686 111.693 82.5299 110.907 82.0766L89.0862 69.4788L96.2404 65.3482C96.7421 65.0584 97.3673 65.0564 97.869 65.3462L114.485 74.9391C120.961 78.802 124.368 86.6246 122.32 94.268Z" fill="black"/>
</svg>
