<svg width="168" height="168" viewBox="0 0 168 168" fill="none" xmlns="http://www.w3.org/2000/svg">
<path d="M67.6707 88.6679C64.0839 89.6858 61.7307 91.4706 60.1806 93.254C61.6653 91.9547 63.6541 90.7622 66.3369 90.0017C69.0809 89.224 71.4218 89.2296 73.3561 89.6029V88.0903C71.706 87.9394 69.8143 88.0597 67.6707 88.6679ZM60.0166 75.9528L46.6957 79.4623C46.6957 79.4623 46.9385 79.8052 47.388 80.2628L58.6825 77.2867C58.6825 77.2867 58.5224 79.349 57.1325 81.1939C59.7616 79.2048 60.0166 75.9528 60.0166 75.9528ZM71.1671 107.259C52.421 112.308 42.5031 90.5835 39.5003 79.3075C38.113 74.1026 37.5074 70.1606 37.346 67.6168C37.3286 67.3526 37.3367 67.1299 37.3553 66.9259C36.3829 66.9846 35.9173 67.4901 36.012 68.9509C36.1735 71.4934 36.7791 75.4351 38.1664 80.6416C41.1678 91.916 51.0871 113.641 69.8332 108.592C73.9136 107.492 76.9791 105.49 79.2802 102.934C77.1592 104.85 74.5045 106.359 71.1671 107.259ZM74.6899 62.6571V63.9912H82.0429C81.892 63.5189 81.74 63.0933 81.5891 62.6571H74.6899Z" fill="#2D4552"/>
<path d="M83.6862 73.6447C86.9931 74.5839 88.7419 76.9022 89.6663 78.954L93.3534 80.0011C93.3534 80.0011 92.8504 72.8205 86.3553 70.9756C80.2792 69.2493 76.5401 74.3517 76.0853 75.012C77.8528 73.7527 80.434 72.7217 83.6862 73.6447ZM113.036 78.9871C106.954 77.253 103.216 82.366 102.768 83.0171C104.537 81.7592 107.117 80.7279 110.368 81.6551C113.669 82.5956 115.417 84.9112 116.344 86.9643L120.036 88.0154C120.036 88.0154 119.525 80.8334 113.036 78.9871ZM109.373 97.92L78.7012 89.3454C78.7012 89.3454 79.0333 91.0288 80.3073 93.2086L106.131 100.428C108.257 99.1979 109.373 97.92 109.373 97.92ZM88.1081 116.377C63.8222 109.865 66.7583 78.922 70.688 64.259C72.3061 58.2163 73.9695 53.7249 75.349 50.7142C74.526 50.5447 73.8443 50.9783 73.1707 52.3482C71.706 55.3189 69.8329 60.1558 68.0203 66.927C64.0917 81.5897 61.1556 112.532 85.4404 119.043C96.8871 122.11 105.804 117.449 112.452 110.13C106.142 115.844 98.0862 119.048 88.1081 116.377Z" fill="#2D4552"/>
<path d="M74.6899 100.008V93.7636L57.3407 98.6832C57.3407 98.6832 58.6227 91.2345 67.6708 88.6678C70.4147 87.8901 72.756 87.8954 74.6899 88.2689V62.657H83.3767C82.4309 59.7344 81.516 57.4842 80.7474 55.9207C79.4762 53.3328 78.173 55.0483 75.2144 57.5229C73.1306 59.2637 67.8642 62.9774 59.9393 65.1129C52.0142 67.2498 45.6072 66.6831 42.934 66.2202C39.1442 65.5664 37.1619 64.7341 37.3474 67.6167C37.5088 70.1592 38.1144 74.1012 39.5017 79.3074C42.5031 90.582 52.4224 112.307 71.1685 107.258C76.0653 105.938 79.5216 103.331 81.9173 100.006H74.6899V100.008ZM46.6944 79.4622L60.0166 75.9528C60.0166 75.9528 59.6283 81.0778 54.6341 82.3943C49.6384 83.7096 46.6944 79.4622 46.6944 79.4622Z" fill="#E2574C"/>
<path d="M124.828 62.9533C121.365 63.5603 113.057 64.3166 102.79 61.5646C92.5195 58.8142 85.7055 54.0038 83.0058 51.7428C79.1787 48.5373 77.4952 46.3096 75.8385 49.6792C74.3738 52.6512 72.5008 57.4881 70.6879 64.2593C66.7595 78.922 63.8234 109.864 88.1079 116.375C112.387 122.881 125.313 94.6146 129.242 79.9505C131.055 73.1807 131.85 68.0543 132.069 64.7489C132.318 61.0045 129.746 62.0915 124.828 62.9533ZM76.0358 75.0843C76.0358 75.0843 79.8629 69.1321 86.3538 70.977C92.8488 72.8219 93.3518 80.0025 93.3518 80.0025L76.0358 75.0843ZM91.8804 101.794C80.4633 98.4497 78.7024 89.3454 78.7024 89.3454L109.373 97.9203C109.373 97.9189 103.182 105.097 91.8804 101.794ZM102.724 83.0839C102.724 83.0839 106.546 77.1358 113.036 78.986C119.525 80.8337 120.036 88.0143 120.036 88.0143L102.724 83.0839Z" fill="#2EAD33"/>
<path d="M68.6273 95.483L57.3408 98.6818C57.3408 98.6818 58.5668 91.6974 66.8812 88.9295L60.4902 64.9451L59.938 65.113C52.013 67.2502 45.606 66.6832 42.9328 66.2203C39.143 65.5667 37.1607 64.7341 37.3462 67.617C37.5076 70.1595 38.1132 74.1012 39.5005 79.3078C42.5019 90.5821 52.4212 112.307 71.1672 107.258L71.7195 107.084L68.6273 95.483ZM46.6945 79.4625L60.0168 75.9528C60.0168 75.9528 59.6285 81.0778 54.6342 82.3944C49.6385 83.7096 46.6945 79.4625 46.6945 79.4625Z" fill="#D65348"/>
<path d="M92.3954 101.919L91.879 101.794C80.4619 98.4497 78.701 89.3454 78.701 89.3454L94.5164 93.7661L102.89 61.5913L102.788 61.5646C92.5181 58.8142 85.7044 54.0038 83.0044 51.7428C79.1773 48.5373 77.4938 46.3096 75.8371 49.6792C74.3738 52.6512 72.5008 57.4881 70.6879 64.2593C66.7595 78.922 63.8234 109.864 88.1079 116.375L88.6056 116.487L92.3954 101.919ZM76.0358 75.0843C76.0358 75.0843 79.8629 69.1321 86.3538 70.977C92.8488 72.8219 93.3518 80.0025 93.3518 80.0025L76.0358 75.0843Z" fill="#1D8D22"/>
<path d="M69.2021 95.3191L66.1753 96.1781C66.8904 100.209 68.1507 104.078 70.129 107.495C70.4733 107.419 70.8148 107.354 71.1656 107.258C72.0847 107.01 72.937 106.703 73.7576 106.368C71.5472 103.088 70.085 99.3101 69.2021 95.3191ZM68.0202 66.9273C66.4647 72.7326 65.0733 81.0884 65.4563 89.4695C66.1419 89.172 66.8661 88.8947 67.6706 88.6665L68.2309 88.5412C67.5478 79.5889 69.0245 70.4662 70.6879 64.2593C71.1096 62.6891 71.5324 61.2286 71.9538 59.8666C71.2749 60.2986 70.544 60.7415 69.7114 61.1977C69.15 62.9307 68.583 64.8249 68.0202 66.9273Z" fill="#C04B41"/>
</svg>
