<svg xmlns="http://www.w3.org/2000/svg" width="168" height="168" fill="none"><path fill="#167FA3" d="M83.915 93.331a9.294 9.294 0 1 0 0-18.587 9.294 9.294 0 0 0 0 18.587Z"/><path fill="#167FA3" d="M132.83 84.037c0-7.337-6.787-13.818-17.67-18.037 1.773-11.495-.428-20.667-6.787-24.335-6.359-3.669-15.347-.979-24.458 6.298-.734-.612-1.528-1.162-2.262-1.712-8.622-6.237-16.509-7.888-22.195-4.586-5.687 3.302-8.255 10.883-7.154 21.461.122.917.244 1.896.367 2.813C41.787 70.219 35 76.7 35 84.038c0 7.337 6.787 13.818 17.67 18.037-.122.978-.305 1.895-.366 2.813-1.04 10.577 1.467 18.22 7.154 21.461 1.956 1.101 4.096 1.651 6.48 1.651 4.648 0 10.028-2.079 15.715-6.176.734-.55 1.528-1.161 2.262-1.712 6.36 5.075 12.657 7.888 18.038 7.888 2.323 0 4.524-.55 6.42-1.651 5.686-3.302 8.254-10.884 7.154-21.461-.123-.918-.245-1.896-.367-2.813 10.883-4.219 17.67-10.7 17.67-18.038Zm-30.939-39.315c1.59 0 2.935.306 4.158 1.04 4.158 2.384 5.931 9.293 4.647 18.71-4.219-1.285-8.866-2.263-13.818-2.874-2.996-3.975-6.176-7.521-9.416-10.578 5.38-4.158 10.455-6.298 14.429-6.298Zm-1.834 48.61c-1.773 3.118-3.73 6.053-5.686 8.804-3.302.367-6.787.55-10.456.55-3.669 0-7.154-.183-10.455-.55-1.957-2.69-3.852-5.625-5.687-8.805a121.887 121.887 0 0 1-4.77-9.294 102.718 102.718 0 0 1 4.77-9.293c1.835-3.18 3.73-6.115 5.687-8.805 3.301-.367 6.787-.55 10.455-.55 3.669 0 7.154.183 10.456.55a90.578 90.578 0 0 1 5.686 8.805 112.468 112.468 0 0 1 4.769 9.355 95.158 95.158 0 0 1-4.769 9.232Zm7.154-3.425c1.101 3.119 2.018 6.176 2.69 9.11-2.812.857-5.931 1.652-9.232 2.202a106.475 106.475 0 0 0 3.485-5.564 262.077 262.077 0 0 0 3.057-5.748Zm-23.296 24.091c-2.201-2.018-4.341-4.28-6.542-6.909 2.14.122 4.341.183 6.603.183 2.201 0 4.403-.061 6.543-.183-2.202 2.568-4.403 4.891-6.604 6.909ZM67.223 101.28c-3.363-.611-6.42-1.345-9.233-2.201.673-2.935 1.529-5.992 2.69-9.11a104.336 104.336 0 0 0 3.119 5.747 64.61 64.61 0 0 0 3.424 5.564Zm-6.604-23.112c-1.1-3.119-2.017-6.176-2.69-9.11 2.813-.918 5.93-1.652 9.233-2.202-1.162 1.773-2.324 3.669-3.486 5.564-1.039 1.896-2.078 3.791-3.057 5.748Zm23.296-24.091c2.262 2.018 4.464 4.341 6.543 6.91a117.379 117.379 0 0 0-13.146 0c2.2-2.63 4.402-4.953 6.603-6.91Zm20.178 18.343c-1.101-1.895-2.263-3.79-3.486-5.564 3.363.612 6.482 1.345 9.294 2.262-.611 2.874-1.528 5.931-2.69 9.172a89.214 89.214 0 0 0-3.118-5.87Zm-47.142-9.722c-.856-8.499.917-14.674 4.891-16.998 1.162-.672 2.568-1.04 4.158-1.04 3.608 0 8.132 1.835 12.963 5.32.489.367.917.673 1.406 1.04a84.699 84.699 0 0 0-9.416 10.516c-4.953.612-9.6 1.59-13.819 2.874-.061-.55-.122-1.161-.183-1.712Zm-17.304 21.34c0-4.83 5.075-9.784 13.88-13.391.978 4.341 2.506 8.866 4.402 13.39-1.896 4.586-3.424 9.11-4.402 13.391-8.744-3.608-13.88-8.56-13.88-13.39ZM78.9 118.094c-6.909 5.013-13.207 6.542-17.12 4.28-3.974-2.263-5.748-8.438-4.892-16.998.062-.551.123-1.162.184-1.773 4.158 1.284 8.805 2.262 13.818 2.873 3.058 3.975 6.176 7.521 9.417 10.517-.428.428-.918.734-1.407 1.101Zm31.979-12.718c.856 8.499-.918 14.674-4.892 16.998-4.158 2.384-11.067.489-18.588-5.32 3.241-3.057 6.42-6.603 9.416-10.517 4.953-.611 9.6-1.589 13.819-2.873.122.55.184 1.161.245 1.712Zm3.424-7.949c-.979-4.341-2.507-8.866-4.403-13.39 1.957-4.647 3.424-9.172 4.403-13.452 8.743 3.668 13.879 8.621 13.879 13.451s-5.136 9.783-13.879 13.391Z"/></svg>