<svg xmlns="http://www.w3.org/2000/svg" width="168" height="168" fill="none"><path fill="#62D84E" fill-rule="evenodd" d="M84.269 45c-24.117-.142-44.053 19.58-44.267 43.803-.108 12.827 5.216 24.367 13.826 32.513 3.109 2.966 7.968 3.251 11.362.607 5.002-3.894 11.433-6.252 18.829-6.252 7.395 0 13.826 2.322 18.828 6.252 3.43 2.68 8.254 2.323 11.398-.678A44.106 44.106 0 0 0 128 89.161c0-24.295-19.579-44.017-43.731-44.16Zm-.286 66.241c-13.077 0-22.009-9.825-22.009-22.009 0-12.183 8.932-22.151 22.009-22.151 13.076 0 22.008 10.004 22.008 22.151 0 12.148-8.932 22.009-22.008 22.009Z" clip-rule="evenodd"/></svg>