<svg width="168" height="168" viewBox="0 0 168 168" fill="none" xmlns="http://www.w3.org/2000/svg">
<mask id="mask0_4246_81" style="mask-type:luminance" maskUnits="userSpaceOnUse" x="40" y="58" width="88" height="53">
<path d="M40 58H128V110.92H40V58Z" fill="white"/>
</mask>
<g mask="url(#mask0_4246_81)">
<path fill-rule="evenodd" clip-rule="evenodd" d="M84 58C72.2667 58 64.9333 63.88 62 75.64C66.4 69.76 71.5333 67.555 77.4 69.025C80.7473 69.8629 83.1396 72.2982 85.7877 74.9916C90.1013 79.3803 95.0945 84.46 106 84.46C117.733 84.46 125.067 78.58 128 66.82C123.6 72.7 118.467 74.905 112.6 73.435C109.253 72.5971 106.86 70.1618 104.212 67.4684C99.8987 63.0797 94.9055 58 84 58ZM62 84.46C50.2667 84.46 42.9333 90.34 40 102.1C44.4 96.22 49.5333 94.015 55.4 95.485C58.7473 96.3245 61.1396 98.7582 63.7877 101.452C68.1013 105.84 73.0945 110.92 84 110.92C95.7333 110.92 103.067 105.04 106 93.28C101.6 99.16 96.4667 101.365 90.6 99.895C87.2527 99.0571 84.8604 96.6218 82.2123 93.9284C77.8987 89.5397 72.9055 84.46 62 84.46Z" fill="#38BDF8"/>
</g>
</svg>
