<svg width="168" height="168" viewBox="0 0 168 168" fill="none" xmlns="http://www.w3.org/2000/svg">
<path d="M120.25 44H47.75C45.6789 44 44 45.6789 44 47.75V120.25C44 122.321 45.6789 124 47.75 124H120.25C122.321 124 124 122.321 124 120.25V47.75C124 45.6789 122.321 44 120.25 44Z" fill="#3178C6"/>
<path fill-rule="evenodd" clip-rule="evenodd" d="M90.4139 106.168V114.934C91.8341 115.664 93.5137 116.212 95.4529 116.577C97.3921 116.943 99.4359 117.125 101.585 117.125C103.678 117.125 105.668 116.924 107.552 116.523C109.437 116.121 111.089 115.459 112.509 114.536C113.929 113.614 115.054 112.409 115.883 110.92C116.711 109.432 117.125 107.592 117.125 105.4C117.125 103.812 116.888 102.419 116.415 101.223C115.941 100.027 115.259 98.9629 114.366 98.0315C113.474 97.1001 112.404 96.2646 111.158 95.525C109.91 94.7854 108.504 94.0868 106.937 93.4294C105.79 92.9546 104.762 92.4934 103.851 92.046C102.941 91.5986 102.167 91.142 101.53 90.6763C100.893 90.2106 100.401 89.7175 100.055 89.197C99.7091 88.6766 99.5361 88.0876 99.5361 87.4301C99.5361 86.8274 99.6908 86.2841 100 85.8002C100.31 85.3163 100.747 84.9008 101.311 84.5538C101.876 84.2068 102.568 83.9374 103.387 83.7457C104.206 83.5539 105.117 83.458 106.118 83.458C106.847 83.458 107.616 83.5128 108.426 83.6224C109.236 83.7319 110.051 83.9009 110.871 84.1292C111.69 84.3574 112.486 84.6451 113.261 84.9921C114.034 85.3391 114.749 85.7408 115.404 86.1974V78.0067C114.075 77.4953 112.623 77.1164 111.048 76.8698C109.473 76.6233 107.666 76.5 105.627 76.5C103.551 76.5 101.584 76.7237 99.7272 77.1711C97.8701 77.6186 96.2359 78.3171 94.8248 79.2667C93.4136 80.2164 92.2984 81.4263 91.4791 82.8964C90.6597 84.3666 90.25 86.1243 90.25 88.1698C90.25 90.7813 91.0011 93.0093 92.5033 94.8538C94.0054 96.6984 96.2859 98.2598 99.3449 99.5382C100.547 100.031 101.666 100.515 102.704 100.99C103.742 101.465 104.639 101.958 105.395 102.469C106.15 102.981 106.746 103.538 107.183 104.14C107.621 104.743 107.839 105.428 107.839 106.195C107.839 106.761 107.702 107.286 107.429 107.77C107.156 108.254 106.742 108.674 106.187 109.03C105.631 109.386 104.939 109.665 104.111 109.866C103.282 110.066 102.313 110.167 101.202 110.167C99.3084 110.167 97.4331 109.834 95.5758 109.167C93.7186 108.501 91.998 107.501 90.4139 106.168ZM75.6891 84.3465H87.125V77.125H55.25V84.3465H66.6299V116.5H75.6891V84.3465Z" fill="white"/>
</svg>
