<svg width="168" height="168" viewBox="0 0 168 168" fill="none" xmlns="http://www.w3.org/2000/svg">
<path d="M86.9186 114.524C86.011 115.679 84.155 115.037 84.155 113.569V99.4756C84.155 97.7664 82.7701 96.3818 81.0608 96.3818H65.5001C64.2419 96.3818 63.508 94.9585 64.2419 93.936L74.4722 79.6126C75.9369 77.5647 74.4722 74.7183 71.9531 74.7183H53.1212C51.8629 74.7183 51.1295 73.2951 51.8629 72.2726L65.1255 53.7032C65.4174 53.2966 65.8859 53.0549 66.3838 53.0549H105.907C107.165 53.0549 107.898 54.4781 107.165 55.5006L96.9342 69.824C95.4699 71.8719 96.9342 74.7183 99.4537 74.7183H115.015C116.305 74.7183 117.03 76.2063 116.232 77.2229L86.9186 114.524Z" fill="#863BFF"/>
<mask id="mask0_4246_213" style="mask-type:alpha" maskUnits="userSpaceOnUse" x="51" y="53" width="66" height="63">
<path d="M86.7767 114.523C85.8692 115.679 84.0132 115.036 84.0132 113.569V99.4752C84.0132 97.7664 82.6282 96.3814 80.919 96.3814H65.3583C64.1001 96.3814 63.3662 94.9581 64.1001 93.9357L74.3303 79.6123C75.7951 77.5645 74.3303 74.7181 71.8113 74.7181H52.9793C51.7211 74.7181 50.9876 73.2949 51.7211 72.2724L64.9837 53.7029C65.2756 53.2963 65.744 53.0547 66.242 53.0547H105.765C107.023 53.0547 107.757 54.4779 107.023 55.5004L96.7924 69.8238C95.328 71.8716 96.7924 74.7181 99.3118 74.7181H114.873C116.163 74.7181 116.888 76.2061 116.09 77.2226L86.7767 114.523Z" fill="black"/>
</mask>
<g mask="url(#mask0_4246_213)">
<g filter="url(#filter0_f_4246_213)">
<path d="M85.5678 103.568C85.5813 107.729 76.5872 111.131 65.479 111.167C54.3707 111.203 45.3548 107.859 45.3413 103.698C45.3278 99.5373 54.3219 96.1349 65.4301 96.0989C76.5384 96.0629 85.5543 99.4069 85.5678 103.568Z" fill="#EDE6FF"/>
</g>
<g filter="url(#filter1_f_4246_213)">
<path d="M79.3437 77.7973C79.3692 85.6535 61.1086 92.0815 38.5575 92.1546C16.0065 92.2277 -2.29537 85.9182 -2.32084 78.062C-2.3463 70.2058 15.9143 63.7778 38.4653 63.7047C61.0164 63.6316 79.3183 69.9411 79.3437 77.7973Z" fill="#EDE6FF"/>
</g>
<g filter="url(#filter2_f_4246_213)">
<path d="M79.5019 75.8043C79.5154 79.9653 60.856 83.3989 37.825 83.4736C14.7939 83.5482 -3.88738 80.2356 -3.90087 76.0746C-3.91436 71.9136 14.7451 68.4799 37.7761 68.4053C60.8072 68.3306 79.4884 71.6433 79.5019 75.8043Z" fill="#7E14FF"/>
</g>
<g filter="url(#filter3_f_4246_213)">
<path d="M86.095 100.424C86.1085 104.585 67.3807 108.019 44.2652 108.094C21.1497 108.168 2.39997 104.856 2.38648 100.695C2.37299 96.5341 21.1009 93.1002 44.2163 93.0253C67.3318 92.9504 86.0815 96.2628 86.095 100.424Z" fill="#7E14FF"/>
</g>
<g filter="url(#filter4_f_4246_213)">
<path d="M88.191 101.995C88.2045 106.156 69.4766 109.59 46.3611 109.665C23.2456 109.74 4.49592 106.428 4.48243 102.267C4.46894 98.1058 23.1968 94.6719 46.3123 94.5969C69.4278 94.522 88.1775 97.8344 88.191 101.995Z" fill="#7E14FF"/>
</g>
<g filter="url(#filter5_f_4246_213)">
<path d="M93.9572 67.0547C94.5785 56.4427 108.58 48.6302 125.231 49.6051C141.881 50.58 154.875 59.9731 154.254 70.5852C153.633 81.1972 139.631 89.0097 122.981 88.0348C106.33 87.0599 93.3358 77.6668 93.9572 67.0547Z" fill="#EDE6FF"/>
</g>
<g filter="url(#filter6_f_4246_213)">
<path d="M96.2104 74.0335C96.1651 71.4122 109.294 69.0595 125.534 68.7785C141.774 68.4975 154.977 70.3947 155.022 73.0159C155.067 75.6372 141.939 77.9899 125.698 78.2709C109.458 78.5519 96.2558 76.6547 96.2104 74.0335Z" fill="#7E14FF"/>
</g>
<g filter="url(#filter7_f_4246_213)">
<path d="M96.2104 74.0335C96.1651 71.4122 109.294 69.0595 125.534 68.7785C141.774 68.4975 154.977 70.3947 155.022 73.0159C155.067 75.6372 141.939 77.9899 125.698 78.2709C109.458 78.5519 96.2558 76.6547 96.2104 74.0335Z" fill="#7E14FF"/>
</g>
<g filter="url(#filter8_f_4246_213)">
<path d="M26.6263 96.0445C29.1946 98.1625 42.6178 86.1266 56.6077 69.1617C70.5977 52.1968 79.8567 36.727 77.2884 34.609C74.72 32.4911 61.2968 44.5269 47.3069 61.4919C33.3169 78.4568 24.0579 93.9266 26.6263 96.0445Z" fill="#7E14FF"/>
</g>
<g filter="url(#filter9_f_4246_213)">
<path d="M91.9797 76.143C94.6069 78.1876 107.685 65.7775 121.19 48.4243C134.696 31.0711 143.514 15.3461 140.887 13.3015C138.26 11.2569 125.182 23.667 111.677 41.0202C98.1711 58.3734 89.3526 74.0984 91.9797 76.143Z" fill="#7E14FF"/>
</g>
<g filter="url(#filter10_f_4246_213)">
<path d="M99.9569 72.1514C103.517 74.922 110.038 72.497 114.523 66.7349C119.007 60.9727 119.757 54.0556 116.197 51.2849C112.637 48.5143 106.115 50.9393 101.631 56.7014C97.1462 62.4635 96.3969 69.3807 99.9569 72.1514Z" fill="#47BFFF"/>
</g>
<g filter="url(#filter11_f_4246_213)">
<path d="M24.4038 136.908C27.0309 138.953 40.1089 126.543 53.6143 109.19C67.1196 91.8364 75.9382 76.1114 73.311 74.0668C70.6839 72.0222 57.6059 84.4322 44.1006 101.785C30.5952 119.139 21.7767 134.864 24.4038 136.908Z" fill="#7E14FF"/>
</g>
<g filter="url(#filter12_f_4246_213)">
<path d="M24.4038 136.908C27.0309 138.953 40.1089 126.543 53.6143 109.19C67.1196 91.8364 75.9382 76.1114 73.311 74.0668C70.6839 72.0222 57.6059 84.4322 44.1006 101.785C30.5952 119.139 21.7767 134.864 24.4038 136.908Z" fill="#7E14FF"/>
</g>
<g filter="url(#filter13_f_4246_213)">
<path d="M75.7422 125.384C78.3693 127.429 91.4473 115.018 104.953 97.6653C118.458 80.3121 127.277 64.5871 124.649 62.5425C122.022 60.4979 108.944 72.9079 95.439 90.2611C81.9336 107.614 73.115 123.339 75.7422 125.384Z" fill="#7E14FF"/>
</g>
<g filter="url(#filter14_f_4246_213)">
<path d="M91.1271 113.887C94.6872 116.657 103.327 111.51 110.425 102.39C117.522 93.2705 120.39 83.6313 116.83 80.8606C113.27 78.09 104.63 83.2371 97.5325 92.357C90.4349 101.477 87.567 111.116 91.1271 113.887Z" fill="#47BFFF"/>
</g>
</g>
<path d="M41.4641 52C28.882 70.0096 28.8086 97.9254 41.4641 116H49.9651C37.3126 97.9254 37.386 70.0096 49.9651 52H41.4641Z" fill="#08060D"/>
<path d="M126.852 52H118.351C130.932 70.0096 131.006 97.9258 118.351 116H126.852C139.504 97.9258 139.43 70.0096 126.852 52Z" fill="#08060D"/>
<defs>
<filter id="filter0_f_4246_213" x="40.4303" y="91.1877" width="50.0485" height="24.8908" filterUnits="userSpaceOnUse" color-interpolation-filters="sRGB">
<feFlood flood-opacity="0" result="BackgroundImageFix"/>
<feBlend mode="normal" in="SourceGraphic" in2="BackgroundImageFix" result="shape"/>
<feGaussianBlur stdDeviation="2.45548" result="effect1_foregroundBlur_4246_213"/>
</filter>
<filter id="filter1_f_4246_213" x="-7.23176" y="58.7931" width="91.4865" height="38.273" filterUnits="userSpaceOnUse" color-interpolation-filters="sRGB">
<feFlood flood-opacity="0" result="BackgroundImageFix"/>
<feBlend mode="normal" in="SourceGraphic" in2="BackgroundImageFix" result="shape"/>
<feGaussianBlur stdDeviation="2.45548" result="effect1_foregroundBlur_4246_213"/>
</filter>
<filter id="filter2_f_4246_213" x="-6.84746" y="65.4575" width="89.296" height="20.9639" filterUnits="userSpaceOnUse" color-interpolation-filters="sRGB">
<feFlood flood-opacity="0" result="BackgroundImageFix"/>
<feBlend mode="normal" in="SourceGraphic" in2="BackgroundImageFix" result="shape"/>
<feGaussianBlur stdDeviation="1.47329" result="effect1_foregroundBlur_4246_213"/>
</filter>
<filter id="filter3_f_4246_213" x="-0.560105" y="90.0775" width="89.6017" height="20.9639" filterUnits="userSpaceOnUse" color-interpolation-filters="sRGB">
<feFlood flood-opacity="0" result="BackgroundImageFix"/>
<feBlend mode="normal" in="SourceGraphic" in2="BackgroundImageFix" result="shape"/>
<feGaussianBlur stdDeviation="1.47329" result="effect1_foregroundBlur_4246_213"/>
</filter>
<filter id="filter4_f_4246_213" x="1.53584" y="91.6491" width="89.6017" height="20.9639" filterUnits="userSpaceOnUse" color-interpolation-filters="sRGB">
<feFlood flood-opacity="0" result="BackgroundImageFix"/>
<feBlend mode="normal" in="SourceGraphic" in2="BackgroundImageFix" result="shape"/>
<feGaussianBlur stdDeviation="1.47329" result="effect1_foregroundBlur_4246_213"/>
</filter>
<filter id="filter5_f_4246_213" x="89.0248" y="44.612" width="70.1615" height="48.4159" filterUnits="userSpaceOnUse" color-interpolation-filters="sRGB">
<feFlood flood-opacity="0" result="BackgroundImageFix"/>
<feBlend mode="normal" in="SourceGraphic" in2="BackgroundImageFix" result="shape"/>
<feGaussianBlur stdDeviation="2.45548" result="effect1_foregroundBlur_4246_213"/>
</filter>
<filter id="filter6_f_4246_213" x="93.2636" y="65.8043" width="64.7049" height="15.4407" filterUnits="userSpaceOnUse" color-interpolation-filters="sRGB">
<feFlood flood-opacity="0" result="BackgroundImageFix"/>
<feBlend mode="normal" in="SourceGraphic" in2="BackgroundImageFix" result="shape"/>
<feGaussianBlur stdDeviation="1.47329" result="effect1_foregroundBlur_4246_213"/>
</filter>
<filter id="filter7_f_4246_213" x="93.2636" y="65.8043" width="64.7049" height="15.4407" filterUnits="userSpaceOnUse" color-interpolation-filters="sRGB">
<feFlood flood-opacity="0" result="BackgroundImageFix"/>
<feBlend mode="normal" in="SourceGraphic" in2="BackgroundImageFix" result="shape"/>
<feGaussianBlur stdDeviation="1.47329" result="effect1_foregroundBlur_4246_213"/>
</filter>
<filter id="filter8_f_4246_213" x="23.2519" y="31.4207" width="57.411" height="67.8121" filterUnits="userSpaceOnUse" color-interpolation-filters="sRGB">
<feFlood flood-opacity="0" result="BackgroundImageFix"/>
<feBlend mode="normal" in="SourceGraphic" in2="BackgroundImageFix" result="shape"/>
<feGaussianBlur stdDeviation="1.47329" result="effect1_foregroundBlur_4246_213"/>
</filter>
<filter id="filter9_f_4246_213" x="88.57" y="10.1345" width="55.7267" height="69.1754" filterUnits="userSpaceOnUse" color-interpolation-filters="sRGB">
<feFlood flood-opacity="0" result="BackgroundImageFix"/>
<feBlend mode="normal" in="SourceGraphic" in2="BackgroundImageFix" result="shape"/>
<feGaussianBlur stdDeviation="1.47329" result="effect1_foregroundBlur_4246_213"/>
</filter>
<filter id="filter10_f_4246_213" x="94.7624" y="47.1922" width="26.6288" height="29.0519" filterUnits="userSpaceOnUse" color-interpolation-filters="sRGB">
<feFlood flood-opacity="0" result="BackgroundImageFix"/>
<feBlend mode="normal" in="SourceGraphic" in2="BackgroundImageFix" result="shape"/>
<feGaussianBlur stdDeviation="1.47329" result="effect1_foregroundBlur_4246_213"/>
</filter>
<filter id="filter11_f_4246_213" x="20.9941" y="70.8998" width="55.7267" height="69.1754" filterUnits="userSpaceOnUse" color-interpolation-filters="sRGB">
<feFlood flood-opacity="0" result="BackgroundImageFix"/>
<feBlend mode="normal" in="SourceGraphic" in2="BackgroundImageFix" result="shape"/>
<feGaussianBlur stdDeviation="1.47329" result="effect1_foregroundBlur_4246_213"/>
</filter>
<filter id="filter12_f_4246_213" x="20.9941" y="70.8998" width="55.7267" height="69.1754" filterUnits="userSpaceOnUse" color-interpolation-filters="sRGB">
<feFlood flood-opacity="0" result="BackgroundImageFix"/>
<feBlend mode="normal" in="SourceGraphic" in2="BackgroundImageFix" result="shape"/>
<feGaussianBlur stdDeviation="1.47329" result="effect1_foregroundBlur_4246_213"/>
</filter>
<filter id="filter13_f_4246_213" x="72.3325" y="59.3755" width="55.7267" height="69.1754" filterUnits="userSpaceOnUse" color-interpolation-filters="sRGB">
<feFlood flood-opacity="0" result="BackgroundImageFix"/>
<feBlend mode="normal" in="SourceGraphic" in2="BackgroundImageFix" result="shape"/>
<feGaussianBlur stdDeviation="1.47329" result="effect1_foregroundBlur_4246_213"/>
</filter>
<filter id="filter14_f_4246_213" x="86.6513" y="77.1643" width="34.6544" height="40.4188" filterUnits="userSpaceOnUse" color-interpolation-filters="sRGB">
<feFlood flood-opacity="0" result="BackgroundImageFix"/>
<feBlend mode="normal" in="SourceGraphic" in2="BackgroundImageFix" result="shape"/>
<feGaussianBlur stdDeviation="1.47329" result="effect1_foregroundBlur_4246_213"/>
</filter>
</defs>
</svg>
