<svg width="320" height="320" fill="none" xmlns="http://www.w3.org/2000/svg"><g clip-path="url(#a)"><path d="M8.419 110.748 160 .618l151.581 110.13-57.899 178.195H66.318l-57.9-178.195Z" fill="#fff" stroke="#A9AEB1"/><path d="M32.766 118.659 160 26.219l127.234 92.44-48.599 149.573H81.365l-48.6-149.573Z" stroke="#A9AEB1"/><path d="M57.113 126.57 160 51.818l102.887 74.752-39.299 120.951H96.412L57.113 126.57Z" stroke="#A9AEB1"/><path d="M81.46 134.481 160 77.418l78.54 57.063-30 92.329h-97.081l-30-92.329Z" stroke="#A9AEB1"/><path d="M105.807 142.392 160 103.018l54.193 39.374-20.7 63.707h-66.986l-20.7-63.707Z" stroke="#A9AEB1"/><path d="M130.154 150.302 160 128.618l29.846 21.684-11.4 35.087h-36.892l-11.4-35.087ZM8.4 110.8l151.721 49.691m0 0V.8m0 159.691L312 110.8m-151.879 49.691L254 289.2m-93.879-128.709L66 289.2" stroke="#A9AEB1"/><path d="M300 115.2 160 41.5 22.4 115.2 95 249.5l144.2 17.7 60.8-152Z" fill="url(#b)" style="mix-blend-mode:multiply"/></g><defs><linearGradient id="b" x1="22.4" y1="154.35" x2="300" y2="154.35" gradientUnits="userSpaceOnUse"><stop stop-color="#BE32D0"/><stop offset="1" stop-color="#FD4496"/></linearGradient><clipPath id="a"><path fill="#fff" d="M0 0h320v320H0z"/></clipPath></defs></svg>