<svg xmlns="http://www.w3.org/2000/svg" width="168" height="168" fill="none"><path fill="#300" d="M57.53 44h52.991c8.035 0 14.53 6.496 14.53 14.53v50.94c0 8.034-6.495 14.53-14.53 14.53H57.53C49.496 124 43 117.504 43 109.47V58.53C43 50.496 49.496 44 57.53 44Z"/><path fill="#FF9A00" d="M82.658 91.863H69.94l-2.598 8.034a.599.599 0 0 1-.65.479h-6.427c-.376 0-.479-.205-.376-.615l11.008-31.693c.103-.341.206-.718.342-1.128.137-.718.205-1.47.205-2.222-.034-.171.103-.342.274-.376h8.855c.273 0 .41.102.444.273L93.496 99.83c.102.376 0 .547-.342.547h-7.145c-.24.034-.48-.137-.547-.376l-2.804-8.137Zm-10.735-6.94h8.684a48.526 48.526 0 0 0-.787-2.462c-.307-.922-.615-1.914-.923-2.94-.341-1.06-.65-2.085-.991-3.145a73.892 73.892 0 0 1-.923-3.043c-.274-.957-.513-1.846-.752-2.666h-.069A41.986 41.986 0 0 1 75 75.077c-.513 1.641-1.026 3.35-1.573 5.06a67.156 67.156 0 0 1-1.504 4.786Zm29.197-14.598c-1.129.034-2.223-.41-3.043-1.197a4.441 4.441 0 0 1-1.162-3.145 4.022 4.022 0 0 1 1.23-3.043c.82-.786 1.915-1.196 3.043-1.196 1.333 0 2.359.41 3.111 1.196a4.313 4.313 0 0 1 1.128 3.043 4.325 4.325 0 0 1-1.196 3.145c-.787.82-1.949 1.265-3.111 1.197ZM97.29 100V73.675c0-.342.137-.478.445-.478h6.769c.308 0 .445.17.445.478V100c0 .376-.137.547-.445.547h-6.7c-.343 0-.513-.205-.513-.547Z"/></svg>