<svg xmlns="http://www.w3.org/2000/svg" width="168" height="168" fill="none"><path fill="#470137" d="M57.53 44h52.991c8.035 0 14.53 6.496 14.53 14.53v50.94c0 8.034-6.495 14.53-14.53 14.53H57.53C49.496 124 43 117.504 43 109.47V58.53C43 50.496 49.496 44 57.53 44Z"/><path fill="#FF61F6" d="M86.145 65.026 75.89 81.949l10.94 17.948c.068.137.103.274.068.411-.034.136-.17.034-.376.068h-7.829c-.547 0-.923-.034-1.162-.376-.718-1.436-1.47-2.838-2.188-4.273a138.355 138.355 0 0 0-2.325-4.308c-.82-1.47-1.64-2.94-2.462-4.445h-.068c-.718 1.47-1.504 2.94-2.29 4.41a574.53 574.53 0 0 0-2.325 4.377c-.787 1.436-1.573 2.906-2.36 4.307-.136.342-.41.376-.785.376h-7.522c-.137 0-.24.069-.24-.102a.474.474 0 0 1 .07-.376L65.666 82.53l-10.36-17.538c-.102-.137-.136-.274-.068-.342.069-.103.205-.137.342-.137h7.76c.172 0 .343.034.48.068a.97.97 0 0 1 .341.308c.65 1.47 1.402 2.94 2.188 4.41.82 1.47 1.607 2.906 2.462 4.342a75.365 75.365 0 0 1 2.29 4.342h.069c.718-1.504 1.47-2.975 2.222-4.41.752-1.436 1.539-2.872 2.325-4.308.786-1.436 1.538-2.906 2.29-4.308.035-.136.103-.273.206-.342.136-.068.273-.102.444-.068h7.214a.315.315 0 0 1 .376.24c.034.033-.034.17-.103.239ZM101.94 101.094c-2.53.034-5.06-.479-7.35-1.538-2.154-.992-3.932-2.633-5.163-4.65-1.265-2.086-1.88-4.684-1.88-7.795a14.042 14.042 0 0 1 1.88-7.214 14.198 14.198 0 0 1 5.436-5.299c2.393-1.333 5.265-1.983 8.65-1.983.171 0 .41 0 .718.035.307.034.649.034 1.06.068V61.914c0-.239.102-.376.341-.376h6.941c.171-.034.307.103.342.24V94.393c0 .615.034 1.3.068 2.051.068.718.102 1.402.137 1.983 0 .24-.103.445-.342.547a26.06 26.06 0 0 1-5.573 1.641 30.12 30.12 0 0 1-5.265.479Zm3.351-6.838V79.214c-.308-.069-.616-.137-.923-.171a12.52 12.52 0 0 0-1.129-.069c-1.333 0-2.666.274-3.863.89a7.664 7.664 0 0 0-2.906 2.53c-.752 1.093-1.128 2.563-1.128 4.341a9.526 9.526 0 0 0 .581 3.521 6.682 6.682 0 0 0 1.538 2.428 5.907 5.907 0 0 0 2.325 1.367c.923.308 1.881.445 2.838.445.513 0 .991-.034 1.436-.069.444.034.82-.034 1.231-.17Z"/></svg>