<svg xmlns="http://www.w3.org/2000/svg" width="168" height="168" fill="none"><path fill="#0ACF83" d="M70.333 124c7.36 0 13.334-5.973 13.334-13.333V97.333H70.333c-7.36 0-13.333 5.974-13.333 13.334C57 118.027 62.973 124 70.333 124Z"/><path fill="#A259FF" d="M57 84c0-7.36 5.973-13.333 13.333-13.333h13.334v26.666H70.333C62.973 97.333 57 91.36 57 84Z"/><path fill="#F24E1E" d="M57 57.333C57 49.973 62.973 44 70.333 44h13.334v26.667H70.333C62.973 70.667 57 64.693 57 57.333Z"/><path fill="#FF7262" d="M83.667 44H97c7.36 0 13.333 5.973 13.333 13.333S104.36 70.667 97 70.667H83.667V44Z"/><path fill="#1ABCFE" d="M110.333 84c0 7.36-5.973 13.333-13.333 13.333S83.667 91.36 83.667 84 89.64 70.667 97 70.667 110.333 76.64 110.333 84Z"/></svg>