<svg xmlns="http://www.w3.org/2000/svg" width="168" height="168" fill="none"><path fill="#E24329" d="m120.507 76.496-.105-.269-10.174-26.552a2.653 2.653 0 0 0-1.047-1.261 2.727 2.727 0 0 0-3.114.167c-.435.353-.75.831-.903 1.37l-6.87 21.018H70.477l-6.87-21.018a2.67 2.67 0 0 0-.903-1.374 2.725 2.725 0 0 0-3.114-.167c-.472.3-.839.741-1.047 1.26L48.349 76.213l-.1.268a18.893 18.893 0 0 0 6.266 21.835l.035.028.093.066 15.499 11.606 7.667 5.804 4.671 3.526a3.14 3.14 0 0 0 3.799 0l4.67-3.526 7.668-5.804 15.592-11.676.039-.031a18.901 18.901 0 0 0 6.259-21.812Z"/><path fill="#FC6D26" d="m120.507 76.496-.105-.269a34.365 34.365 0 0 0-13.681 6.15L84.375 99.273c7.61 5.757 14.234 10.758 14.234 10.758l15.592-11.677.039-.03a18.897 18.897 0 0 0 6.267-21.828Z"/><path fill="#FCA326" d="m70.142 110.031 7.667 5.803 4.671 3.527a3.146 3.146 0 0 0 3.799 0l4.67-3.527 7.668-5.803s-6.632-5.017-14.241-10.758c-7.61 5.741-14.234 10.758-14.234 10.758Z"/><path fill="#FC6D26" d="M62.026 82.377a34.325 34.325 0 0 0-13.677-6.165l-.1.268a18.893 18.893 0 0 0 6.266 21.835l.035.028.093.066 15.499 11.606 14.234-10.758-22.35-16.88Z"/></svg>