<svg xmlns="http://www.w3.org/2000/svg" width="168" height="168" fill="none"><path fill="#0535C1" d="M84 128c24.301 0 44-19.699 44-44 0-24.3-19.699-44-44-44-24.3 0-44 19.7-44 44 0 24.301 19.7 44 44 44Z"/><path fill="#EAEAEA" d="M113 70.832h-2.632a8.12 8.12 0 0 0-15.784 2.708 8.128 8.128 0 0 0 8.126 8.126H113a5.42 5.42 0 0 0 0-10.834Z"/><path fill="#fff" fill-opacity=".2" d="M118.418 76.316v-.066A5.42 5.42 0 0 0 113 70.832h-2.708v.136H113a5.417 5.417 0 0 1 5.418 5.346v.002Z"/><path fill="#E1E1E1" d="m102.71 65.418 4.392 13.872c1.468-1.474 3.732-3.506 3.732-5.748a8.128 8.128 0 0 0-8.126-8.126l.002.002Z"/><path fill="#EEE" d="M102.71 81.668a8.126 8.126 0 1 0 0-16.252 8.126 8.126 0 0 0 0 16.252Z"/><path fill="#fff" fill-opacity=".2" d="M102.71 65.552a8.128 8.128 0 0 1 8.124 8.06v-.066a8.125 8.125 0 0 0-16.25-.006v.066a8.128 8.128 0 0 1 8.126-8.054Z"/><path fill="#212121" fill-opacity=".1" d="M113 81.53h-10.292a8.128 8.128 0 0 1-8.124-8.06v.066a8.128 8.128 0 0 0 8.126 8.124H113a5.42 5.42 0 0 0 5.418-5.416v-.066A5.42 5.42 0 0 1 113 81.53Z"/><path fill="#FFF176" d="M72 58.5h23v20H72v-20Z"/><path fill="#fff" d="M69.5 89H97v27.5H69.5V89Z"/><path fill="#F4481E" d="M100 76.5h4v8H64v-8h4v-16l16-10 16 10v16Zm-8 0V64.934l-8-5-8 5V76.5h16Z"/><path fill="#F4481E" d="M62.224 122.242 69 76.5h30l6.776 45.742A43.797 43.797 0 0 1 84 128a43.796 43.796 0 0 1-21.776-5.758Zm30.734-31.94-18.82 6.114-2.288 15.44 23.184-7.534-2.076-14.02Z"/><path fill="#FAFAFA" d="M72 81h-3.038a9.372 9.372 0 0 0-18.212 3.126 9.38 9.38 0 0 0 9.376 9.374H72A6.252 6.252 0 0 0 72 81Z"/><path fill="#fff" fill-opacity=".2" d="M78.25 87.324v-.074c0-3.45-2.8-6.25-6.25-6.25h-3.126v.156H72a6.252 6.252 0 0 1 6.25 6.168Z"/><path fill="#E1E1E1" d="m60.126 74.75 5.066 16.004c1.694-1.7 4.306-4.044 4.306-6.632a9.38 9.38 0 0 0-9.374-9.374l.002.002Z"/><path fill="#fff" d="M60.126 93.502a9.376 9.376 0 1 0 0-18.752 9.376 9.376 0 0 0 0 18.752Z"/><path fill="#fff" fill-opacity=".2" d="M60.126 74.906a9.38 9.38 0 0 1 9.374 9.3v-.074a9.375 9.375 0 1 0-18.75-.006v.074a9.378 9.378 0 0 1 9.376-9.294Z"/><path fill="#212121" fill-opacity=".1" d="M72 93.344H60.124a9.38 9.38 0 0 1-9.374-9.3v.074a9.38 9.38 0 0 0 9.376 9.376H72c3.45 0 6.25-2.8 6.25-6.25v-.076A6.252 6.252 0 0 1 72 93.344Z"/><path fill="#fff" fill-opacity=".2" d="M84 40.46c24.224 0 43.87 19.574 43.996 43.77L128 84c0-24.3-19.7-44-44-44S40 59.7 40 84c0 .076.006.15.006.23C40.13 60.036 59.772 40.46 84 40.46Z"/><path fill="#263238" fill-opacity=".2" d="M127.996 83.77c-.128 24.196-19.772 43.77-43.996 43.77-24.226 0-43.87-19.576-43.994-43.77 0 .08-.006.154-.006.23 0 24.3 19.7 44 44 44s44-19.7 44-44l-.004-.23Z"/></svg>