<svg xmlns="http://www.w3.org/2000/svg" width="168" height="168" fill="none"><path fill="#000" d="M128 70.17h-12.763v48.552H128V70.17Z"/><path fill="#FF4B4B" d="M60.17 62.763a7.39 7.39 0 0 1 7.408 7.407h12.763C80.25 59.014 71.237 50 60.17 50 49.102 50 40 59.014 40 70.17h12.763a7.39 7.39 0 0 1 7.407-7.407Z"/><path fill="#5887FF" d="M67.578 118.722h12.674V70.17H67.578v48.552Z"/><path fill="#FA0" d="M100.333 118.722v-12.763H80.251v12.763h20.082Z"/><path fill="#00843F" d="M100.333 70.17a7.39 7.39 0 0 1 7.407-7.407V50c-11.066 0-20.08 9.014-20.08 20.17v35.879h12.762V70.17h-.089Z"/><path fill="#FC83FF" d="M115.237 70.17H128C127.911 59.014 118.897 50 107.83 50v12.763a7.39 7.39 0 0 1 7.407 7.407Z"/><path fill="#000" d="M52.763 70.17H40v48.552h12.763V70.17Z"/></svg>