<svg xmlns="http://www.w3.org/2000/svg" width="168" height="168" fill="none"><path fill="#FF4785" d="m54.481 117.717-2.478-66.033a4.022 4.022 0 0 1 3.768-4.166l56.167-3.51a4.022 4.022 0 0 1 4.273 4.014v71.956a4.022 4.022 0 0 1-4.203 4.018l-53.688-2.411a4.023 4.023 0 0 1-3.839-3.868Z"/><mask id="a" width="65" height="80" x="52" y="44" maskUnits="userSpaceOnUse" style="mask-type:luminance"><path fill="#fff" d="m54.481 117.717-2.478-66.033a4.022 4.022 0 0 1 3.768-4.166l56.167-3.51a4.022 4.022 0 0 1 4.273 4.014v71.956a4.022 4.022 0 0 1-4.203 4.018l-53.688-2.411a4.023 4.023 0 0 1-3.839-3.868Z"/></mask><g mask="url(#a)"><path fill="#fff" d="m99.415 53.833.383-9.227 7.714-.606.332 9.516a.6.6 0 0 1-.971.492l-2.974-2.343-3.522 2.671a.6.6 0 0 1-.962-.503Zm-9.865 20.32c0 1.565 10.541.815 11.956-.284 0-10.657-5.718-16.256-16.189-16.256-10.47 0-16.337 5.687-16.337 14.217 0 14.857 20.05 15.141 20.05 23.245 0 2.275-1.114 3.625-3.564 3.625-3.193 0-4.456-1.63-4.307-7.175 0-1.203-12.179-1.578-12.55 0-.945 13.437 7.426 17.312 17.005 17.312 9.283 0 16.56-4.947 16.56-13.904 0-15.924-20.347-15.497-20.347-23.388 0-3.198 2.377-3.625 3.787-3.625 1.486 0 4.159.262 3.936 6.233Z"/></g></svg>