<svg xmlns="http://www.w3.org/2000/svg" width="168" height="168" fill="none"><path fill="url(#a)" d="M46.91 104.523a198.1 198.1 0 0 0-2.538 4.11c-.725 1.209-.362 2.781.846 3.506l16.551 10.155c1.209.725 2.78.363 3.504-.846.604-1.088 1.45-2.539 2.416-4.11 6.524-10.76 13.17-9.551 25.01-3.869l16.43 7.737c1.329.605 2.779 0 3.383-1.209l7.853-17.771c.604-1.209 0-2.78-1.208-3.385-3.504-1.572-10.39-4.836-16.431-7.858-22.35-10.76-41.319-10.035-55.817 13.54Z"/><path fill="url(#b)" d="M121.091 64.144c.846-1.33 1.812-2.902 2.537-4.11.725-1.21.362-2.781-.846-3.507l-16.551-10.155c-1.209-.725-2.779-.362-3.504.846a112.045 112.045 0 0 1-2.416 4.11c-6.525 10.76-13.17 9.551-25.01 3.87l-16.43-7.738c-1.33-.604-2.78 0-3.383 1.21l-7.853 17.77c-.604 1.21 0 2.781 1.208 3.386 3.503 1.572 10.39 4.836 16.43 7.858 22.352 10.639 41.32 10.034 55.818-13.54Z"/><defs><linearGradient id="a" x1="119.968" x2="69.975" y1="127.557" y2="98.848" gradientUnits="userSpaceOnUse"><stop stop-color="#0052CC"/><stop offset=".918" stop-color="#2380FB"/><stop offset="1" stop-color="#2684FF"/></linearGradient><linearGradient id="b" x1="48.032" x2="98.026" y1="41.078" y2="69.787" gradientUnits="userSpaceOnUse"><stop stop-color="#0052CC"/><stop offset=".918" stop-color="#2380FB"/><stop offset="1" stop-color="#2684FF"/></linearGradient></defs></svg>