<svg xmlns="http://www.w3.org/2000/svg" width="168" height="168" fill="none"><mask id="a" width="88" height="88" x="40" y="40" maskUnits="userSpaceOnUse" style="mask-type:luminance"><path fill="#fff" d="M40 40h88v88H40V40Z"/></mask><g mask="url(#a)"><path fill="#F03C2E" d="m126.342 80.082-38.423-38.42a5.666 5.666 0 0 0-8.017 0l-7.976 7.98L82.045 59.76a6.733 6.733 0 0 1 6.924 1.613 6.737 6.737 0 0 1 1.598 6.97l9.756 9.752a6.733 6.733 0 0 1 8.432 3.79 6.74 6.74 0 0 1-6.233 9.322 6.75 6.75 0 0 1-4.772-1.975 6.746 6.746 0 0 1-1.463-7.336l-9.098-9.095v23.94a6.742 6.742 0 1 1-9.217 8.625 6.749 6.749 0 0 1 0-5.162 6.761 6.761 0 0 1 3.669-3.661v-24.16a6.75 6.75 0 0 1-3.659-8.844l-9.977-9.979-26.348 26.341a5.675 5.675 0 0 0 0 8.017l38.425 38.425a5.673 5.673 0 0 0 8.016 0l38.244-38.245a5.674 5.674 0 0 0 0-8.016Z"/></g></svg>