<svg xmlns="http://www.w3.org/2000/svg" width="168" height="168" fill="none"><path fill="#1B1F23" fill-rule="evenodd" d="M84.012 44C61.352 44 43 62.353 43 85.012c0 18.147 11.74 33.476 28.042 38.91 2.05.359 2.82-.872 2.82-1.948 0-.974-.052-4.204-.052-7.639-10.304 1.897-12.97-2.512-13.79-4.819-.462-1.179-2.46-4.819-4.204-5.793-1.435-.769-3.486-2.665-.051-2.717 3.23-.051 5.536 2.974 6.306 4.204 3.69 6.203 9.586 4.46 11.944 3.384.359-2.666 1.436-4.461 2.615-5.486-9.126-1.025-18.66-4.562-18.66-20.25 0-4.46 1.589-8.15 4.203-11.021-.41-1.026-1.846-5.23.41-10.868 0 0 3.435-1.077 11.278 4.203 3.281-.922 6.767-1.384 10.253-1.384 3.486 0 6.972.462 10.253 1.384 7.844-5.331 11.278-4.203 11.278-4.203 2.256 5.639.821 9.842.411 10.868 2.614 2.87 4.203 6.51 4.203 11.022 0 15.738-9.586 19.224-18.711 20.249 1.486 1.282 2.768 3.743 2.768 7.587 0 5.486-.051 9.894-.051 11.279 0 1.076.769 2.358 2.82 1.948 16.199-5.434 27.939-20.814 27.939-38.91 0-22.66-18.353-41.012-41.012-41.012Z" clip-rule="evenodd"/></svg>