<svg xmlns="http://www.w3.org/2000/svg" width="168" height="168" fill="none"><path fill="#FFD600" d="M107.709 48H61.053C41.173 48 25 64.148 25 84s16.172 36 36.053 36h46.656c19.881 0 36.053-16.151 36.053-36s-16.172-36-36.053-36Z"/><path fill="#013042" d="M62.16 98.311c-8.405 0-14.743-6.13-14.743-14.274 0-8.089 6.513-14.425 14.825-14.425 8.405 0 14.743 6.13 14.743 14.261 0 8.102-6.513 14.438-14.825 14.438Zm0-24.136c-5.355 0-9.395 4.174-9.395 9.712 0 5.537 4.164 9.875 9.477 9.875 5.355 0 9.395-4.174 9.395-9.712 0-5.538-4.164-9.88-9.477-9.88v.005ZM109.694 98.084c-1.212 0-2.147-.764-2.629-2.152l-6.353-18.387-6.332 18.387c-.487 1.388-1.427 2.152-2.647 2.152h-.66c-1.207 0-2.184-.793-2.681-2.16L80.31 73.226a3.493 3.493 0 0 1-.21-.973c0-1.364 1.141-2.43 2.597-2.43a2.538 2.538 0 0 1 2.462 1.803l6.377 19.662L97.97 71.79c.437-1.321 1.38-2.059 2.587-2.059h.5c1.234 0 2.155.732 2.589 2.06l6.43 19.489 6.372-19.648a2.54 2.54 0 0 1 2.425-1.808 2.405 2.405 0 0 1 2.473 2.379c-.022.35-.093.697-.209 1.028l-8.101 22.69c-.498 1.372-1.472 2.16-2.679 2.16l-.662.003Z"/><path fill="#013042" d="M107.709 52.23H61.053a31.836 31.836 0 0 0-22.495 9.303 31.742 31.742 0 0 0-9.317 22.462 31.741 31.741 0 0 0 9.317 22.461 31.837 31.837 0 0 0 22.495 9.304h46.656a31.836 31.836 0 0 0 22.494-9.304 31.74 31.74 0 0 0 9.318-22.461 31.742 31.742 0 0 0-9.318-22.462 31.835 31.835 0 0 0-22.494-9.304Zm0 59.293H61.053a27.61 27.61 0 0 1-19.67-7.967 27.53 27.53 0 0 1-6.047-8.965 27.495 27.495 0 0 1 6.047-30.16 27.606 27.606 0 0 1 19.67-7.967h46.656a27.602 27.602 0 0 1 19.67 7.967 27.516 27.516 0 0 1 8.171 19.562 27.52 27.52 0 0 1-8.171 19.563 27.606 27.606 0 0 1-19.67 7.967Z"/></svg>