<svg width="168" height="168" viewBox="0 0 168 168" fill="none" xmlns="http://www.w3.org/2000/svg">
<path fill-rule="evenodd" clip-rule="evenodd" d="M114.482 44H53.5176C50.9944 44.0035 48.5756 45.0073 46.7915 46.7915C45.0073 48.5756 44.0035 50.9944 44 53.5176V114.482C44.0035 117.006 45.0073 119.424 46.7915 121.209C48.5756 122.993 50.9944 123.997 53.5176 124H114.482C117.006 123.997 119.424 122.993 121.209 121.209C122.993 119.424 123.997 117.006 124 114.482V53.5176C123.997 50.9944 122.993 48.5756 121.209 46.7915C119.424 45.0073 117.006 44.0035 114.482 44ZM78.4601 101.617C78.4601 102.457 78.1267 103.261 77.5336 103.855C76.9403 104.448 76.1355 104.781 75.2963 104.781H61.9324C61.0933 104.781 60.2886 104.448 59.6953 103.855C59.102 103.261 58.7686 102.457 58.7686 101.617V61.9324C58.7686 61.0933 59.102 60.2886 59.6953 59.6953C60.2886 59.102 61.0933 58.7686 61.9324 58.7686H75.2963C76.1355 58.7686 76.9403 59.102 77.5336 59.6953C78.1267 60.2886 78.4601 61.0933 78.4601 61.9324V101.617ZM109.231 83.3961C109.24 83.8172 109.165 84.2356 109.01 84.6272C108.855 85.0184 108.623 85.3751 108.328 85.6757C108.033 85.9767 107.682 86.2156 107.294 86.3787C106.905 86.5418 106.489 86.6255 106.068 86.6255H92.7036C91.8644 86.6255 91.0597 86.2921 90.4667 85.699C89.8733 85.1057 89.5399 84.3009 89.5399 83.4618V61.9324C89.5399 61.0933 89.8733 60.2886 90.4667 59.6953C91.0597 59.102 91.8644 58.7686 92.7036 58.7686H106.068C106.907 58.7686 107.712 59.102 108.305 59.6953C108.898 60.2886 109.231 61.0933 109.231 61.9324V83.3961Z" fill="url(#paint0_linear_2051_2310)"/>
<defs>
<linearGradient id="paint0_linear_2051_2310" x1="84" y1="124" x2="84" y2="44" gradientUnits="userSpaceOnUse">
<stop stop-color="#0052CC"/>
<stop offset="1" stop-color="#2684FF"/>
</linearGradient>
</defs>
</svg>
